<svg xmlns="http://www.w3.org/2000/svg" width="1372" height="246" fill="none" xmlns:v="https://vecta.io/nano"><path d="M1370.05 123c0 8.085-4.57 16.125-13.59 24.037-9.02 7.907-22.38 15.581-39.67 22.92-34.59 14.672-84.7 27.909-146.7 39.033C1046.11 231.235 874.802 245 685.547 245s-360.568-13.765-484.545-36.01c-61.997-11.124-112.107-24.361-146.695-39.033-17.298-7.339-30.656-15.013-39.674-22.92C5.61 139.125 1.047 131.085 1.047 123s4.563-16.125 13.586-24.037c9.018-7.907 22.377-15.581 39.674-22.92 34.588-14.673 84.698-27.909 146.695-39.033C324.979 14.765 496.292 1 685.547 1s360.563 13.765 484.543 36.01c62 11.124 112.11 24.361 146.7 39.033 17.29 7.338 30.65 15.012 39.67 22.92s13.59 15.952 13.59 24.037z" stroke="#fff" stroke-width="2"/></svg>