<svg width="42" height="43" viewBox="0 0 42 43" fill="none" xmlns="http://www.w3.org/2000/svg">
<path d="M21 8.375C24.5661 8.375 25.011 8.38812 26.4101 8.45375C27.8079 8.51937 28.7595 8.73856 29.5969 9.06406C30.4631 9.39744 31.1929 9.84894 31.9226 10.5774C32.59 11.2335 33.1064 12.0271 33.4359 12.9031C33.7601 13.7392 33.9806 14.6921 34.0463 16.0899C34.1079 17.489 34.125 17.9339 34.125 21.5C34.125 25.0661 34.1119 25.511 34.0463 26.9101C33.9806 28.3079 33.7601 29.2595 33.4359 30.0969C33.1074 30.9733 32.5908 31.7672 31.9226 32.4226C31.2663 33.0898 30.4727 33.6062 29.5969 33.9359C28.7608 34.2601 27.8079 34.4806 26.4101 34.5463C25.011 34.6079 24.5661 34.625 21 34.625C17.4339 34.625 16.989 34.6119 15.5899 34.5463C14.1921 34.4806 13.2405 34.2601 12.4031 33.9359C11.5268 33.6071 10.733 33.0906 10.0774 32.4226C9.40985 31.7666 8.89341 30.9729 8.56406 30.0969C8.23856 29.2608 8.01937 28.3079 7.95375 26.9101C7.89206 25.511 7.875 25.0661 7.875 21.5C7.875 17.9339 7.88812 17.489 7.95375 16.0899C8.01937 14.6907 8.23856 13.7405 8.56406 12.9031C8.8925 12.0266 9.40905 11.2327 10.0774 10.5774C10.7332 9.90962 11.5269 9.39314 12.4031 9.06406C13.2405 8.73856 14.1907 8.51937 15.5899 8.45375C16.989 8.39206 17.4339 8.375 21 8.375ZM21 14.9375C19.2595 14.9375 17.5903 15.6289 16.3596 16.8596C15.1289 18.0903 14.4375 19.7595 14.4375 21.5C14.4375 23.2405 15.1289 24.9097 16.3596 26.1404C17.5903 27.3711 19.2595 28.0625 21 28.0625C22.7405 28.0625 24.4097 27.3711 25.6404 26.1404C26.8711 24.9097 27.5625 23.2405 27.5625 21.5C27.5625 19.7595 26.8711 18.0903 25.6404 16.8596C24.4097 15.6289 22.7405 14.9375 21 14.9375ZM29.5312 14.6094C29.5312 14.1743 29.3584 13.757 29.0507 13.4493C28.743 13.1416 28.3257 12.9688 27.8906 12.9688C27.4555 12.9688 27.0382 13.1416 26.7305 13.4493C26.4228 13.757 26.25 14.1743 26.25 14.6094C26.25 15.0445 26.4228 15.4618 26.7305 15.7695C27.0382 16.0771 27.4555 16.25 27.8906 16.25C28.3257 16.25 28.743 16.0771 29.0507 15.7695C29.3584 15.4618 29.5312 15.0445 29.5312 14.6094ZM21 17.5625C22.0443 17.5625 23.0458 17.9773 23.7842 18.7158C24.5227 19.4542 24.9375 20.4557 24.9375 21.5C24.9375 22.5443 24.5227 23.5458 23.7842 24.2842C23.0458 25.0227 22.0443 25.4375 21 25.4375C19.9557 25.4375 18.9542 25.0227 18.2158 24.2842C17.4773 23.5458 17.0625 22.5443 17.0625 21.5C17.0625 20.4557 17.4773 19.4542 18.2158 18.7158C18.9542 17.9773 19.9557 17.5625 21 17.5625Z" fill="#1658B3"/>
</svg>
