<svg width="42" height="43" viewBox="0 0 42 43" fill="none" xmlns="http://www.w3.org/2000/svg">
<path d="M14 33.75H8.75V16.25H14V33.75ZM33.25 33.75H28V24.4015C28 21.9655 27.132 20.7527 25.4118 20.7527C24.0485 20.7527 23.184 21.4317 22.75 22.7915C22.75 25 22.75 33.75 22.75 33.75H17.5C17.5 33.75 17.57 18 17.5 16.25H21.644L21.9642 19.75H22.0728C23.149 18 24.8692 16.8135 27.2283 16.8135C29.022 16.8135 30.4727 17.3122 31.5805 18.5652C32.6952 19.82 33.25 21.5035 33.25 23.8677V33.75Z" fill="#1658B3"/>
<path d="M11.3727 14.5C12.8707 14.5 14.0852 13.3247 14.0852 11.875C14.0852 10.4253 12.8707 9.25 11.3727 9.25C9.87458 9.25 8.66016 10.4253 8.66016 11.875C8.66016 13.3247 9.87458 14.5 11.3727 14.5Z" fill="#1658B3"/>
</svg>
