<svg xmlns="http://www.w3.org/2000/svg" width="114" height="127" fill="none" xmlns:v="https://vecta.io/nano"><g clip-path="url(#A)" fill="#fff"><path d="M51.867 25.693l6.619 88.517H45.839l-.454-12.013h-7.462l-.305 12.013H24.972l5.522-88.517h21.373zM38.354 90.057h6.576l-2.222-52.351H39.8l-1.446 52.351zM77.23 46.822l-.069-11.139h-5.406v.082h-.082l.339 41.445h5.407l-.056-9.092h8.192l.041 6.634c.032 5.078-3.464 9.419-8.126 10.566-.9.246-1.718.328-2.701.328a10.81 10.81 0 0 1-2.787-.328c-4.594-1.147-8.144-5.488-8.175-10.566l-.23-37.022c-.032-5.16 3.465-9.337 8.044-10.566.981-.246 1.801-.246 2.784-.246s1.802 0 2.705.246c4.677 1.229 8.225 5.406 8.257 10.566l.056 9.092H77.23zm-15.992 54.253c-.011-1.839.323-3.541 1.003-5.104.68-1.586 1.626-2.954 2.837-4.104s2.643-2.046 4.295-2.69c1.675-.644 3.489-.966 5.444-.966s3.762.322 5.421.966c1.683.644 3.137 1.54 4.363 2.69s2.189 2.518 2.888 4.104c.7 1.563 1.055 3.265 1.066 5.104s-.323 3.552-1.003 5.139a12.33 12.33 0 0 1-2.837 4.069c-1.212 1.15-2.655 2.046-4.329 2.69-1.652.644-3.455.966-5.409.966s-3.773-.322-5.456-.966c-1.659-.644-3.102-1.54-4.328-2.69a12.55 12.55 0 0 1-2.888-4.069c-.7-1.587-1.055-3.3-1.067-5.139zm3.553 0c.009 1.425.247 2.736.714 3.931a9.28 9.28 0 0 0 2.054 3.104c.902.851 1.975 1.529 3.22 2.035 1.245.483 2.637.724 4.178.724s2.93-.241 4.169-.724c1.238-.506 2.292-1.184 3.161-2.035.891-.873 1.563-1.908 2.016-3.104.475-1.195.709-2.506.7-3.931-.009-1.403-.258-2.701-.749-3.897-.468-1.218-1.152-2.253-2.054-3.104-.879-.874-1.941-1.552-3.186-2.035-1.245-.506-2.638-.759-4.178-.759s-2.93.253-4.169.759a9.36 9.36 0 0 0-3.195 2.035c-.868.851-1.54 1.885-2.016 3.104-.452 1.196-.674 2.495-.666 3.897zm2.552 0c-.007-1.058.194-2.046.602-2.966a6.7 6.7 0 0 1 1.71-2.345c.755-.667 1.648-1.184 2.681-1.552 1.032-.391 2.169-.586 3.411-.586a11.79 11.79 0 0 1 2.381.242c.783.161 1.405.368 1.866.621l.033 5.311a8.63 8.63 0 0 0-1.694-.621 6.43 6.43 0 0 0-1.899-.276c-1.035 0-1.815.218-2.341.655a2.04 2.04 0 0 0-.783 1.655c.004.667.272 1.218.803 1.655.531.414 1.315.621 2.349.621.667 0 1.31-.08 1.93-.241.643-.184 1.216-.414 1.72-.69l.031 5.069c-.458.253-1.089.472-1.893.656-.781.161-1.597.241-2.447.241-1.219 0-2.347-.184-3.384-.552a8.3 8.3 0 0 1-2.665-1.552 7.73 7.73 0 0 1-1.774-2.345c-.42-.919-.633-1.919-.639-3z"/></g><rect x=".362" y=".359" width="111.913" height="125.281" rx="11.137" transform="matrix(1.00006 0 .006202 .999924 .001658 .218289)" stroke="#fff" stroke-width=".719"/><defs><clipPath id="A"><rect width="112.632" height="126" rx="11.497" transform="matrix(1.00006 0 .006202 .999924 .003906 .218262)" fill="#fff"/></clipPath></defs></svg>