<svg xmlns="http://www.w3.org/2000/svg" width="114" height="127" fill="none" xmlns:v="https://vecta.io/nano"><rect x=".359" y=".359" width="111.913" height="125.281" rx="11.137" transform="matrix(.999992 0 -.000859 1.00001 .754218 .450681)" stroke="#000" stroke-width=".719"/><path d="M52.431 25.928l5.994 88.525H45.779l-.369-12.014h-7.461l-.39 12.014H24.913l6.146-88.524h21.372zm-13.966 64.37h6.576l-1.852-52.356H40.28l-1.815 52.356zM77.64 47.057l.009-11.14h-5.406v.082h-.082l.046 41.448h5.406l.008-9.092h8.191l-.006 6.635c-.004 5.079-3.53 9.42-8.2 10.567-.901.246-1.721.328-2.703.328s-1.802-.082-2.785-.328c-4.586-1.147-8.105-5.488-8.1-10.567l.032-37.025c.005-5.161 3.53-9.338 8.118-10.567.983-.246 1.802-.246 2.785-.246s1.802 0 2.703.246c4.668 1.229 8.187 5.406 8.182 10.567l-.008 9.092h-8.19zm-16.369 54.259c.002-1.839.348-3.541 1.039-5.104.691-1.587 1.647-2.955 2.866-4.104s2.657-2.046 4.314-2.69c1.679-.644 3.496-.966 5.45-.966s3.759.322 5.414.966c1.678.644 3.126 1.541 4.343 2.69a12.32 12.32 0 0 1 2.859 4.104c.688 1.564 1.032 3.265 1.03 5.104s-.348 3.553-1.039 5.139a12.45 12.45 0 0 1-2.866 4.07c-1.219 1.15-2.669 2.046-4.348 2.69-1.656.644-3.461.966-5.416.966s-3.771-.322-5.448-.966c-1.655-.644-3.091-1.54-4.309-2.69s-2.171-2.506-2.859-4.07c-.688-1.586-1.032-3.299-1.03-5.139zm3.552 0c-.001 1.426.227 2.736.686 3.932.482 1.196 1.159 2.23 2.032 3.104.896.851 1.965 1.529 3.206 2.035 1.241.483 2.632.724 4.173.724s2.932-.241 4.174-.724c1.242-.506 2.3-1.184 3.175-2.035.897-.874 1.577-1.908 2.038-3.104.484-1.196.726-2.506.728-3.932.001-1.402-.239-2.702-.721-3.897-.459-1.219-1.136-2.253-2.032-3.104-.873-.874-1.93-1.552-3.171-2.035-1.241-.506-2.632-.759-4.172-.759s-2.932.253-4.174.759a9.44 9.44 0 0 0-3.209 2.035c-.874.851-1.554 1.885-2.038 3.104-.461 1.196-.692 2.495-.693 3.897zm2.552 0c.001-1.058.209-2.046.623-2.966a6.77 6.77 0 0 1 1.726-2.345c.759-.667 1.657-1.184 2.692-1.552 1.035-.391 2.173-.586 3.415-.586.805 0 1.598.081 2.379.242s1.402.368 1.862.621l-.005 5.311a8.59 8.59 0 0 0-1.689-.621c-.598-.184-1.23-.276-1.897-.276-1.035 0-1.817.218-2.346.655s-.794.988-.795 1.655.263 1.219.792 1.656c.528.414 1.31.62 2.345.62.667 0 1.311-.08 1.932-.241.644-.184 1.219-.414 1.725-.69l-.004 5.07c-.46.253-1.093.472-1.897.656a12.19 12.19 0 0 1-2.449.241c-1.219 0-2.345-.184-3.379-.552-1.011-.368-1.896-.885-2.654-1.552a7.66 7.66 0 0 1-1.757-2.345c-.413-.92-.619-1.92-.618-3.001z" fill="#000"/></svg>